<svg width="24" height="24" viewBox="0 0 24 24" fill="none" xmlns="http://www.w3.org/2000/svg">
<path fill-rule="evenodd" clip-rule="evenodd" d="M23.8583 12.4354C23.8583 18.8103 18.5058 23.9998 11.9307 23.9998C5.35248 23.9998 0 18.8103 0 12.4354C0 6.05744 5.35248 0.86792 11.9307 0.86792C18.5058 0.86792 23.8583 6.05744 23.8583 12.4354ZM15.1743 12.4354C15.1743 10.7015 13.7191 9.2906 11.9307 9.2906C10.1392 9.2906 8.68403 10.7015 8.68403 12.4354C8.68403 14.1693 10.1392 15.5802 11.9307 15.5802C13.7191 15.5802 15.1743 14.1693 15.1743 12.4354Z" fill="#801D18"/>
<path fill-rule="evenodd" clip-rule="evenodd" d="M23.6129 11.5678C23.6129 17.7477 18.4459 22.7574 12.0719 22.7574C5.69799 22.7574 0.530945 17.7477 0.530945 11.5678C0.530945 5.38791 5.69799 0.378174 12.0719 0.378174C18.4459 0.378174 23.6129 5.38791 23.6129 11.5678ZM15.9598 11.5678C15.9598 9.48345 14.2186 7.79526 12.0719 7.79526C9.92215 7.79526 8.18094 9.48345 8.18094 11.5678C8.18094 13.6491 9.92215 15.3373 12.0719 15.3373C14.2186 15.3373 15.9598 13.6491 15.9598 11.5678Z" fill="#FFCC00"/>
<g opacity="0.3">
<path d="M23.6132 11.5674C23.6132 17.7473 18.4462 22.757 12.0722 22.757C8.36035 22.757 5.05709 21.0566 2.94501 18.4177C5.0288 20.4045 7.88576 21.6295 11.0382 21.6295C17.4121 21.6295 22.5792 16.6198 22.5792 10.4399C22.5792 7.85884 21.6771 5.48196 20.1622 3.5896C22.2932 5.61909 23.6132 8.44392 23.6132 11.5674Z" fill="#801D18"/>
</g>
<path fill-rule="evenodd" clip-rule="evenodd" d="M20.4823 14.3166L20.0109 14.7462C19.4483 15.2582 19.0554 15.9164 18.8826 16.6447L18.7348 17.2541C18.2257 19.3781 15.969 20.6397 13.8192 20.0058L13.2001 19.823C12.4646 19.6067 11.6789 19.6067 10.9403 19.823L10.3211 20.0058C8.17131 20.6397 5.9178 19.3781 5.40549 17.2541L5.26091 16.6447C5.08491 15.9164 4.69203 15.2582 4.12944 14.7462L3.65799 14.3166C2.01736 12.8295 2.01736 10.3063 3.65799 8.81623L4.12944 8.38656C4.69203 7.87766 5.08491 7.2164 5.26091 6.49115L5.40549 5.87864C5.9178 3.75774 8.17131 2.49616 10.3211 3.12695L10.9403 3.30979C11.6789 3.52614 12.4646 3.52614 13.2001 3.30979L13.8192 3.12695C15.969 2.49616 18.2257 3.75774 18.7348 5.87864L18.8826 6.49115C19.0554 7.2164 19.4483 7.87766 20.0109 8.38656L20.4823 8.81623C22.123 10.3063 22.123 12.8295 20.4823 14.3166ZM15.9596 11.5679C15.9596 9.48358 14.2184 7.79539 12.0717 7.79539C9.92194 7.79539 8.18073 9.48358 8.18073 11.5679C8.18073 13.6492 9.92194 15.3374 12.0717 15.3374C14.2184 15.3374 15.9596 13.6492 15.9596 11.5679Z" fill="#FF2D55"/>
<g opacity="0.3">
<path d="M20.7246 13.5668C20.4732 14.0087 20.1998 14.4292 19.9075 14.8467C19.6183 15.2611 19.3166 15.6695 18.996 16.0656C18.6723 16.4587 18.3328 16.8396 17.9745 17.2083C17.6131 17.571 17.2265 17.9183 16.8148 18.2383C16.6074 18.3937 16.3968 18.5491 16.1705 18.6832C16.0605 18.7564 15.941 18.8173 15.8279 18.8813C15.6865 18.9605 15.5167 19.0062 15.3533 19.0123C15.1899 19.0184 15.0233 18.991 14.8661 18.9179C14.709 18.8447 14.5518 18.7167 14.4796 18.5217C14.445 18.4242 14.4356 18.3206 14.4481 18.2292C14.4544 18.1835 14.467 18.1347 14.4796 18.0981L14.511 17.9976C14.5613 17.8665 14.6147 17.7416 14.6807 17.6228C14.9384 17.1504 15.2747 16.7512 15.6205 16.3673C15.9725 15.9894 16.3433 15.6329 16.7299 15.2916L16.7394 15.2824L16.7488 15.2764C17.4842 14.7431 18.1977 14.1611 18.8671 13.5485C19.5335 12.933 20.1809 12.2839 20.6555 11.5465C20.8818 11.1838 21.0767 10.7816 21.0735 10.4037C21.0704 10.3123 21.0515 10.2087 21.0264 10.1508C20.9887 10.0686 20.9352 9.98322 20.8755 9.91009C20.7498 9.76687 20.5926 9.6724 20.4166 9.65107C20.2406 9.62974 20.0395 9.68154 19.854 9.77296C19.6655 9.86438 19.4863 9.98932 19.3135 10.1264C18.9772 10.4129 18.6723 10.7481 18.3863 11.0955L18.3957 11.0802C18.2354 11.3271 18.0594 11.5465 17.874 11.7628C17.6896 11.9802 17.4947 12.1884 17.2894 12.3875C17.0819 12.5826 16.8682 12.7745 16.6388 12.9482C16.4156 13.125 16.1736 13.2804 15.9316 13.4327L15.8373 13.2926C16.0668 13.1311 16.2899 12.9665 16.5005 12.7837C16.7121 12.6049 16.9133 12.415 17.1039 12.2138C17.2967 12.0147 17.478 11.8065 17.6477 11.5891C17.8143 11.3728 17.9777 11.1442 18.116 10.9187L18.1191 10.9126L18.1254 10.9035C18.4051 10.5317 18.7131 10.1782 19.0714 9.85829C19.2537 9.70287 19.4517 9.55356 19.678 9.43776C19.9012 9.32196 20.1715 9.23664 20.4606 9.26101C20.6021 9.27625 20.7466 9.31892 20.8724 9.38596C20.9981 9.45604 21.1049 9.54746 21.1961 9.64498C21.2872 9.74858 21.3595 9.85523 21.4192 9.97713C21.4852 10.1264 21.501 10.2514 21.5104 10.3855C21.5261 10.6536 21.4632 10.9035 21.3784 11.1351C21.2935 11.3667 21.1804 11.58 21.0547 11.7842C20.8064 12.1895 20.5078 12.5551 20.1966 12.9056C19.8855 13.253 19.5555 13.5851 19.2129 13.902C18.5277 14.5328 17.8111 15.1209 17.0568 15.6786L17.0756 15.6603C16.7048 15.9955 16.3402 16.3368 16.0008 16.6994C15.6676 17.0621 15.3502 17.4399 15.1239 17.8513C15.0201 18.0433 14.9007 18.3084 14.9447 18.3663C14.9573 18.409 15.0044 18.4577 15.0767 18.4943C15.1522 18.5308 15.2464 18.5491 15.3376 18.5491C15.4319 18.5461 15.5167 18.5248 15.6016 18.479C15.7085 18.4211 15.8185 18.3663 15.9222 18.2993C16.1359 18.1774 16.3402 18.0372 16.5445 17.894C17.3428 17.3058 18.0625 16.5989 18.7289 15.8523C19.3983 15.1057 20.0112 14.3043 20.5769 13.4815L20.7246 13.5668Z" fill="#801D18"/>
<path d="M13.2417 15.8274C12.9274 16.5405 12.5282 17.2078 12.0505 17.8356C11.5696 18.4511 11.0165 19.0545 10.237 19.4293C10.0422 19.5177 9.82843 19.5878 9.60528 19.6182C9.36012 19.6517 9.08983 19.6121 8.87296 19.478C8.65924 19.3531 8.48638 19.1489 8.41095 18.9143C8.37009 18.7985 8.35437 18.6675 8.35437 18.57C8.35437 18.4633 8.36066 18.3566 8.37323 18.253C8.42666 17.8417 8.58067 17.4608 8.7661 17.1134C8.96097 16.766 9.1904 16.443 9.44813 16.1504L9.58956 16.2479C9.39784 16.577 9.21555 16.9092 9.07412 17.2505C8.93582 17.5918 8.83525 17.9453 8.81325 18.2927C8.80382 18.4633 8.8101 18.6492 8.85725 18.765C8.90439 18.893 9.00497 18.9966 9.1244 19.0636C9.24697 19.1307 9.38841 19.152 9.52985 19.1307C9.69328 19.1063 9.85672 19.0514 10.017 18.9783C10.3376 18.829 10.6362 18.6126 10.9128 18.3658C11.1956 18.1251 11.4533 17.8478 11.7016 17.5674C12.1982 16.9976 12.654 16.379 13.0877 15.7512L13.2417 15.8274Z" fill="#801D18"/>
<path d="M15.4129 10.0833C15.8686 9.58358 16.3118 9.07164 16.7172 8.54141C17.1164 8.01119 17.4936 7.45658 17.7356 6.87455L17.7607 6.8197L17.7733 6.77094L17.8016 6.67648L17.811 6.58201C17.811 6.56677 17.8141 6.55154 17.8141 6.5363L17.811 6.49059C17.8079 6.36565 17.7576 6.24681 17.6916 6.1371C17.6256 6.0274 17.5219 5.93598 17.4087 5.87199C17.3521 5.83542 17.2893 5.81714 17.2264 5.78972C17.1636 5.77753 17.1007 5.7562 17.0347 5.75924C16.9687 5.74705 16.9058 5.76534 16.843 5.76839C16.7801 5.78667 16.7173 5.79581 16.6575 5.83238C16.5978 5.85371 16.5444 5.89942 16.4878 5.93599C16.4312 5.9756 16.3684 6.03959 16.3118 6.09139C16.0729 6.31689 15.8529 6.56068 15.6424 6.8197L15.6329 6.82884L15.6298 6.83189C15.4705 6.99847 15.3102 7.16404 15.1489 7.32859L14.6617 7.81921C14.3349 8.14832 14.008 8.47132 13.6717 8.79129L13.5428 8.67854C13.8289 8.31896 14.1212 7.96243 14.4166 7.60894L14.8597 7.08176C15.0085 6.90502 15.1594 6.73031 15.3123 6.55763L15.2998 6.56982C15.5041 6.29252 15.7209 6.01826 15.9755 5.76839C16.0415 5.70439 16.0981 5.64345 16.1767 5.5825C16.2584 5.51851 16.3369 5.45147 16.4344 5.40881C16.5287 5.35395 16.6324 5.32653 16.7361 5.29606C16.843 5.28082 16.953 5.25949 17.0598 5.27168C17.1698 5.27168 17.2736 5.2991 17.3773 5.32043C17.4747 5.357 17.5784 5.39052 17.6664 5.44842C17.8487 5.54898 18.0122 5.69221 18.1253 5.86895C18.3705 6.21329 18.3767 6.71305 18.2039 7.05739C17.9179 7.7156 17.4936 8.27325 17.041 8.79129C16.579 9.30628 16.0792 9.78165 15.5292 10.2052L15.4129 10.0833Z" fill="#801D18"/>
<path d="M8.9013 13.2465C8.66872 13.6244 8.40472 13.9809 8.12499 14.3253C7.84212 14.6696 7.53725 14.9987 7.20095 15.3034C7.11923 15.3827 7.02809 15.4527 6.94008 15.5259C6.85208 15.599 6.7578 15.666 6.66351 15.7361C6.56712 15.8011 6.46969 15.8651 6.37121 15.9281L6.21091 16.0134C6.15748 16.0409 6.1072 16.0683 6.03177 16.0957C5.75833 16.2024 5.43146 16.178 5.17373 16.0439C4.91287 15.9098 4.71801 15.6569 4.652 15.3766C4.62057 15.2364 4.62372 15.081 4.64257 14.9682C4.65829 14.8494 4.68343 14.7305 4.71172 14.6178C4.77772 14.3923 4.86258 14.1759 4.96316 13.9718C5.16116 13.5604 5.4126 13.1856 5.67661 12.826C6.21406 12.1099 6.83008 11.4699 7.48382 10.8696L7.60954 10.9854C7.05637 11.665 6.50321 12.3415 6.02862 13.0576C5.90919 13.2374 5.79919 13.4202 5.69232 13.603C5.58861 13.7889 5.49118 13.9748 5.40632 14.1637C5.31831 14.3527 5.25231 14.5477 5.20202 14.7397C5.15174 14.9286 5.11716 15.1419 5.14859 15.2669C5.18316 15.407 5.28374 15.532 5.41889 15.6021C5.55089 15.6721 5.71118 15.6904 5.85576 15.6356C5.87461 15.6264 5.88719 15.6264 5.91233 15.6112L5.97834 15.5777L6.11663 15.5076C6.20672 15.4568 6.29577 15.404 6.38378 15.3491C6.47178 15.2882 6.55979 15.2303 6.64465 15.1663C6.72951 15.1023 6.81437 15.0383 6.89608 14.9713C7.56239 14.4289 8.17213 13.795 8.75987 13.149L8.9013 13.2465Z" fill="#801D18"/>
<path d="M10.6734 8.22775C11.2077 7.64267 11.7232 7.03626 12.1663 6.39024C12.3895 6.06723 12.5938 5.73508 12.7572 5.39378C12.8389 5.22313 12.9081 5.04944 12.9583 4.8727C12.9803 4.78737 12.9992 4.699 13.0118 4.61368C13.0212 4.5314 13.0244 4.43998 13.0118 4.38513C12.9929 4.26324 12.9018 4.15354 12.7823 4.09564C12.6629 4.03774 12.5215 4.03469 12.4052 4.08954C12.248 4.16268 12.0815 4.26629 11.9243 4.37294C11.764 4.4796 11.6132 4.59844 11.4623 4.72338C11.1637 4.97021 10.8777 5.23837 10.6074 5.52176C10.334 5.80211 10.0668 6.0977 9.81538 6.39633C9.68966 6.53956 9.56394 6.70411 9.43193 6.85343C9.30202 7.00782 9.17002 7.16019 9.03592 7.31052C8.76877 7.6122 8.48905 7.90474 8.20304 8.19119C7.91703 8.47763 7.6153 8.75189 7.29786 9.01395C6.97727 9.26992 6.64412 9.5198 6.23868 9.70263C6.1161 9.75748 5.97781 9.78187 5.84266 9.76968C5.70437 9.76054 5.57236 9.71483 5.46236 9.64474C5.23921 9.50152 5.09463 9.25468 5.09149 8.99567L5.09463 8.89815L5.11349 8.80369C5.12606 8.74579 5.14177 8.70008 5.15749 8.64828C5.19101 8.54873 5.22873 8.45122 5.27064 8.35574C5.35236 8.16681 5.45293 7.98397 5.56608 7.81332C6.02495 7.12768 6.62526 6.56394 7.279 6.08551L7.38586 6.2135C6.7887 6.73763 6.23239 7.31052 5.84581 7.97483C5.75152 8.14243 5.66665 8.31308 5.59751 8.48677C5.56398 8.57413 5.5336 8.6625 5.50636 8.75188C5.49379 8.79455 5.48122 8.8433 5.47493 8.87987L5.4655 8.93168V8.98348C5.47493 9.12061 5.55665 9.24859 5.67608 9.31868C5.79866 9.38877 5.94009 9.39486 6.06267 9.33392C6.39268 9.17546 6.70383 8.92863 6.99613 8.6757C7.29157 8.41973 7.58072 8.15157 7.85416 7.86513C8.40104 7.29833 8.91649 6.70411 9.41936 6.08247C9.9411 5.46387 10.4943 4.86965 11.1354 4.34551C11.4592 4.0865 11.7954 3.84271 12.204 3.65988C12.4586 3.54713 12.7635 3.56236 13.0024 3.6873C13.2412 3.80919 13.4298 4.04688 13.4675 4.31504C13.4832 4.45522 13.4707 4.56492 13.4549 4.67462C13.4361 4.78432 13.4109 4.89098 13.3764 4.99154C13.3104 5.19571 13.2255 5.38769 13.1312 5.57052C12.9363 5.93315 12.7006 6.26835 12.4555 6.58831C12.2072 6.90828 11.9369 7.20996 11.6603 7.5025C11.3837 7.79808 11.1009 8.07843 10.796 8.34659L10.6734 8.22775Z" fill="#801D18"/>
</g>
<g opacity="0.6">
<path d="M20.2469 8.59961L20.4827 8.81597C20.5895 8.91348 20.6891 9.01404 20.7813 9.11765L20.5267 8.88606C20.4261 8.79769 20.335 8.70017 20.2469 8.59961Z" fill="white"/>
</g>
<g opacity="0.6">
<path d="M9.46036 14.2218C10.1361 14.7642 11.0004 15.0872 11.9433 15.0872C14.09 15.0872 15.8312 13.399 15.8312 11.3178C15.8312 10.4036 15.4949 9.56557 14.9386 8.9104C15.7997 9.60213 16.3498 10.6474 16.3498 11.8175C16.3498 13.8988 14.6054 15.59 12.4588 15.59C11.2518 15.59 10.1738 15.0568 9.46036 14.2218Z" fill="white"/>
</g>
<g opacity="0.6">
<path d="M3.8751 14.5142L3.65824 14.3161C2.01761 12.8291 2.01761 10.3059 3.65824 8.81579L4.12969 8.38612C4.69228 7.87722 5.08515 7.21597 5.26116 6.49071L5.40574 5.87821C5.91804 3.7573 8.17155 2.49572 10.3213 3.12651L10.9405 3.30935C11.6791 3.52571 12.4649 3.52571 13.2003 3.30935L13.8195 3.12651C15.3752 2.66942 16.9844 3.2027 17.9493 4.33629C16.9813 3.55923 15.6393 3.24536 14.3381 3.62931L13.7158 3.81215C12.9803 4.02851 12.1946 4.02851 11.4591 3.81215L10.8368 3.62931C8.68699 2.99548 6.43349 4.25706 5.92433 6.37796L5.7766 6.99046C5.60059 7.71876 5.20773 8.37698 4.64828 8.88588L4.17368 9.31554C2.63991 10.7081 2.54248 13.0058 3.8751 14.5142Z" fill="white"/>
</g>
<g opacity="0.6">
<path d="M6.7103 19.2986C6.0817 18.7927 5.60711 18.0918 5.40596 17.2538L5.26138 16.6444C5.11681 16.0471 4.82451 15.4955 4.41278 15.0354L4.6485 15.2487C5.20795 15.7576 5.60082 16.4189 5.77683 17.1441L5.92455 17.7566C6.06599 18.3448 6.33943 18.8658 6.7103 19.2986Z" fill="white"/>
</g>
<path fill-rule="evenodd" clip-rule="evenodd" d="M12.0721 23.1319C5.4939 23.1319 0.141418 17.9424 0.141418 11.5675C0.141418 5.18952 5.4939 0 12.0721 0C18.6472 0 23.9997 5.18952 23.9997 11.5675C23.9997 17.9424 18.6472 23.1319 12.0721 23.1319ZM12.0721 0.752677C5.92134 0.752677 0.917731 5.60395 0.917731 11.5675C0.917731 17.531 5.92134 22.3792 12.0721 22.3792C18.2198 22.3792 23.2234 17.531 23.2234 11.5675C23.2234 5.60395 18.2198 0.752677 12.0721 0.752677Z" fill="#801D18"/>
<path fill-rule="evenodd" clip-rule="evenodd" d="M14.9569 20.484C14.5483 20.484 14.1334 20.4261 13.7248 20.3073L13.1057 20.1244C12.4268 19.9233 11.7133 19.9233 11.0344 20.1244L10.4153 20.3073C9.29009 20.6364 8.10834 20.5054 7.08687 19.9355C6.06855 19.3657 5.35823 18.4393 5.09108 17.327L4.9465 16.7145C4.78307 16.0472 4.42791 15.4438 3.90932 14.9745L3.43787 14.5449C2.5767 13.7648 2.10526 12.7074 2.10526 11.5677C2.10526 10.425 2.5767 9.36754 3.43787 8.58744L3.90932 8.15777C4.42791 7.68849 4.78307 7.08817 4.9465 6.42082L5.09108 5.80832C5.35823 4.69606 6.06855 3.76968 7.08687 3.19984C8.10519 2.62695 9.29009 2.49592 10.4153 2.82808L11.0344 3.01091C11.7133 3.20899 12.4268 3.20899 13.1057 3.01091L13.7248 2.82808C14.8532 2.49592 16.0349 2.62695 17.0532 3.19984C18.0716 3.76968 18.7819 4.69606 19.049 5.80832L19.1967 6.42082C19.357 7.08817 19.7153 7.68849 20.2308 8.15777L20.7054 8.58744C21.5634 9.36754 22.038 10.425 22.038 11.5677C22.038 12.7074 21.5634 13.7648 20.7054 14.5449L20.2308 14.9745C19.7153 15.4438 19.357 16.0472 19.1967 16.7145L19.049 17.327C18.7819 18.4393 18.0716 19.3657 17.0532 19.9355C16.4026 20.2981 15.686 20.484 14.9569 20.484ZM9.18323 3.27602C8.57035 3.27602 7.96061 3.43144 7.41059 3.74226C6.54627 4.22373 5.94596 5.00993 5.72281 5.94849L5.5751 6.561C5.38337 7.35024 4.96222 8.06026 4.35248 8.61486L3.87789 9.04453C3.15186 9.70579 2.74956 10.6017 2.74956 11.5677C2.74956 12.5337 3.15186 13.4296 3.87789 14.0878L4.35248 14.5174C4.96222 15.072 5.38337 15.7821 5.5751 16.5713L5.72281 17.1838C5.94596 18.1254 6.54627 18.9086 7.41059 19.3931C8.27491 19.8746 9.27438 19.9873 10.2267 19.707L10.849 19.5241C11.6473 19.2895 12.4928 19.2895 13.2942 19.5241L13.9134 19.707C14.8689 19.9873 15.8683 19.8746 16.7295 19.3931C17.5938 18.9086 18.1941 18.1254 18.4204 17.1838L18.5681 16.5713C18.7567 15.7821 19.1779 15.072 19.7908 14.5174L20.2622 14.0878C20.9914 13.4296 21.3905 12.5337 21.3905 11.5677C21.3905 10.6017 20.9914 9.70579 20.2622 9.04453L19.7908 8.61486C19.1779 8.06026 18.7567 7.35024 18.5681 6.561L18.4204 5.94849C18.1941 5.00993 17.5938 4.22373 16.7295 3.74226C15.8683 3.25774 14.8657 3.14804 13.9134 3.42839L13.2942 3.60818C12.4928 3.84587 11.6473 3.84587 10.849 3.60818L10.2267 3.42839C9.88411 3.32478 9.5321 3.27602 9.18323 3.27602Z" fill="#801D18"/>
<path d="M20.414 13.3564C20.1625 13.7982 19.8891 14.2218 19.5968 14.6362C19.3077 15.0537 19.0059 15.462 18.6853 15.8551C18.0348 16.6413 17.3276 17.3879 16.5041 18.0279C16.2967 18.1833 16.0861 18.3387 15.8598 18.4758C15.7498 18.5459 15.6304 18.6068 15.5141 18.6739C15.3758 18.7501 15.2061 18.7958 15.0426 18.8019C14.8792 18.808 14.7126 18.7836 14.5555 18.7104C14.3983 18.6373 14.238 18.5063 14.1689 18.3112C14.1343 18.2168 14.1249 18.1132 14.1375 18.0187C14.1437 17.973 14.1563 17.9242 14.1657 17.8877L14.2003 17.7902C14.2475 17.6591 14.304 17.5342 14.37 17.4154C14.6278 16.943 14.9641 16.5408 15.3098 16.1599C15.6618 15.78 16.0316 15.4214 16.4193 15.0842L16.4287 15.075L16.4381 15.0659C17.1736 14.5357 17.8902 13.9567 18.5596 13.3442C19.2259 12.7286 19.8702 12.0765 20.3448 11.3391C20.5711 10.9734 20.766 10.5712 20.7597 10.1933C20.7597 10.1049 20.7408 10.0013 20.7157 9.94342C20.678 9.85809 20.6246 9.77277 20.5617 9.70268C20.4391 9.55946 20.282 9.46194 20.106 9.44366C19.9268 9.42233 19.7288 9.47109 19.5434 9.56251C19.3548 9.65393 19.1725 9.77886 19.0028 9.91904C18.6665 10.2024 18.3616 10.5376 18.0756 10.885L18.085 10.8698C17.9216 11.1166 17.7487 11.336 17.5633 11.5554C17.3789 11.7728 17.183 11.98 16.9756 12.1771C16.7713 12.3752 16.5576 12.5641 16.3281 12.7378C16.105 12.9145 15.863 13.073 15.6209 13.2223L15.5267 13.0821C15.753 12.9237 15.9792 12.7591 16.1867 12.5763C16.4004 12.3955 16.6026 12.2045 16.7933 12.0034C16.985 11.8053 17.1641 11.595 17.3339 11.3787C17.5036 11.1654 17.667 10.9368 17.8053 10.7113L17.8085 10.7052L17.8147 10.6961C18.0913 10.3213 18.4025 9.96779 18.7608 9.65088C18.9431 9.49242 19.1411 9.34615 19.3674 9.23035C19.5905 9.11455 19.8577 9.02619 20.15 9.05361C20.4391 9.07494 20.7094 9.23645 20.8854 9.43757C20.9734 9.53813 21.0457 9.64783 21.1086 9.76667C21.1746 9.91599 21.1903 10.044 21.1997 10.1781C21.2123 10.4462 21.1526 10.6961 21.0677 10.9246C20.9829 11.1562 20.8697 11.3695 20.744 11.5737C20.2348 12.3812 19.5748 13.0516 18.8991 13.6885C18.2139 14.3224 17.5004 14.9105 16.743 15.4681L16.765 15.4499C16.3941 15.7881 16.0264 16.1294 15.6901 16.489C15.3569 16.8516 15.0395 17.2325 14.8132 17.6408C14.7095 17.8359 14.59 18.101 14.634 18.1558C14.6466 18.2016 14.6938 18.2503 14.7661 18.2869C14.8415 18.3234 14.9358 18.3417 15.0269 18.3387C15.1212 18.3356 15.2061 18.3174 15.2909 18.2716C15.3978 18.2107 15.5078 18.1558 15.6115 18.0918C15.8252 17.9669 16.0295 17.8267 16.2338 17.6866C17.0384 17.1015 17.755 16.3945 18.4182 15.6418C19.0876 14.8983 19.7005 14.0969 20.2663 13.2741L20.414 13.3564Z" fill="white"/>
<path d="M12.9266 15.6206C12.6155 16.3306 12.2163 17.001 11.7386 17.6257C11.2577 18.2443 10.7014 18.8446 9.92509 19.2195C9.72708 19.3078 9.51651 19.3779 9.29336 19.4114C9.04506 19.445 8.77791 19.4023 8.56104 19.2713C8.34418 19.1433 8.17446 18.9422 8.09903 18.7045C8.02045 18.4576 8.03931 18.2535 8.06131 18.0462C8.1116 17.6318 8.26561 17.254 8.45419 16.9035C8.64905 16.5561 8.87534 16.2362 9.13621 15.9436L9.27764 16.0381C9.08278 16.3672 8.90363 16.6994 8.76219 17.0437C8.6239 17.385 8.52019 17.7385 8.50133 18.0859C8.4919 18.2535 8.49818 18.4393 8.54533 18.5551C8.59247 18.6862 8.69305 18.7898 8.81248 18.8538C8.93506 18.9208 9.07649 18.9452 9.21792 18.9239C9.38136 18.8995 9.54479 18.8416 9.70508 18.7685C10.0225 18.6222 10.3242 18.4028 10.6008 18.159C10.8837 17.9152 11.1383 17.641 11.3897 17.3576C11.8863 16.7877 12.342 16.1722 12.7758 15.5444L12.9266 15.6206Z" fill="white"/>
<path d="M15.1015 9.87344C15.5572 9.37673 16.0004 8.86479 16.4027 8.33456C16.805 7.80433 17.1821 7.24972 17.4241 6.66465L17.4461 6.60979L17.4619 6.56408L17.4901 6.46962C17.4901 6.40563 17.5121 6.34469 17.4964 6.28069C17.4964 6.15575 17.4461 6.03691 17.3801 5.93026C17.311 5.82055 17.2104 5.72913 17.0973 5.66514C17.0407 5.62552 16.9778 5.60724 16.915 5.58286C16.8521 5.57067 16.7893 5.54934 16.7233 5.54934C16.6573 5.5402 16.5944 5.55544 16.5284 5.56153C16.4687 5.57982 16.4027 5.58896 16.3461 5.62248C16.2864 5.64686 16.233 5.68952 16.1764 5.72913C16.1198 5.76875 16.0569 5.8297 15.9972 5.88455C15.7615 6.107 15.5384 6.35382 15.3309 6.60979L15.3215 6.62199L15.3183 6.62503C15.1591 6.79162 14.9988 6.95617 14.8375 7.1187C14.674 7.28325 14.5137 7.45085 14.3503 7.61235C14.0203 7.93537 13.6966 8.26447 13.3603 8.58139L13.2314 8.47169C13.5143 8.10906 13.8129 7.75862 14.1052 7.40209C14.2497 7.2223 14.4006 7.04861 14.5483 6.87491C14.6971 6.69817 14.8469 6.52345 14.9978 6.35077L14.9883 6.36297C15.1926 6.08262 15.4095 5.81141 15.6641 5.55849C15.7269 5.49449 15.7835 5.43659 15.8621 5.3726C15.9469 5.30861 16.0255 5.24461 16.123 5.1989C16.2141 5.14405 16.321 5.11968 16.4247 5.08616C16.5315 5.07092 16.6415 5.05263 16.7484 5.06178C16.8553 5.06178 16.959 5.0892 17.0658 5.11358C17.1633 5.15015 17.267 5.18367 17.355 5.23852C17.5373 5.34213 17.6976 5.48535 17.8107 5.66209C18.059 6.00339 18.0653 6.50314 17.8924 6.84748C17.6064 7.5057 17.1821 8.06335 16.7264 8.58443C16.2675 9.09942 15.7678 9.5748 15.2178 9.99838L15.1015 9.87344Z" fill="white"/>
<path d="M8.58984 13.0397C8.35726 13.4176 8.09325 13.7711 7.81353 14.1185C7.53066 14.4628 7.22579 14.7889 6.8895 15.0966C6.71978 15.249 6.54062 15.3922 6.35205 15.5263C6.25566 15.5933 6.15718 15.6584 6.05661 15.7213L5.89946 15.8036C5.84603 15.831 5.79574 15.8615 5.72031 15.8859C5.44687 15.9925 5.12 15.9712 4.86228 15.8341C4.59827 15.7 4.40654 15.4501 4.34054 15.1667C4.30911 15.0296 4.31225 14.8742 4.33111 14.7614C4.34683 14.6395 4.36883 14.5237 4.40026 14.411C4.46312 14.1825 4.55113 13.9691 4.6517 13.765C4.84971 13.3505 5.098 12.9757 5.36515 12.6192C5.89946 11.9031 6.52177 11.2632 7.17236 10.6628L7.29808 10.7756C6.74178 11.4521 6.19175 12.1347 5.71717 12.8508C5.48144 13.2104 5.26144 13.576 5.09172 13.957C5.00686 14.1459 4.94085 14.3409 4.88742 14.5329C4.84028 14.7188 4.8057 14.9321 4.83713 15.0601C4.87171 15.2002 4.97228 15.3252 5.10743 15.3953C5.23944 15.4654 5.39972 15.4806 5.54116 15.4257C5.57573 15.4166 5.62287 15.3922 5.66688 15.3709L5.80517 15.3008C5.89527 15.248 5.98432 15.1942 6.07232 15.1393C6.16033 15.0784 6.24833 15.0205 6.33319 14.9595C6.41805 14.8925 6.50291 14.8285 6.58463 14.7614C7.25094 14.219 7.86067 13.5852 8.44841 12.9422L8.58984 13.0397Z" fill="white"/>
<path d="M10.3623 8.02075C10.8966 7.43568 11.4121 6.82622 11.8521 6.1802C12.0784 5.86023 12.2827 5.52808 12.443 5.18374L12.5058 5.05575L12.5561 4.92472C12.5875 4.83939 12.6253 4.75407 12.641 4.6657C12.663 4.57733 12.6944 4.492 12.6944 4.40668C12.7007 4.3244 12.7164 4.22994 12.7007 4.17813C12.6818 4.05319 12.5907 3.94349 12.4712 3.88559C12.3518 3.83074 12.2104 3.82465 12.0941 3.88255C11.9338 3.95568 11.7672 4.05929 11.6132 4.16594C11.4529 4.2726 11.2989 4.39144 11.1512 4.51333C10.554 5.01004 10.0134 5.59207 9.50428 6.18629C8.99826 6.80184 8.46396 7.41434 7.8888 7.98114C7.60279 8.27063 7.3042 8.54489 6.98676 8.80695C6.66617 9.06293 6.33302 9.3128 5.93072 9.49869C5.68243 9.60839 5.37127 9.58401 5.14812 9.44079C4.92497 9.29757 4.7804 9.04464 4.77725 8.78562L4.78039 8.68811L4.79925 8.59669C4.81182 8.53575 4.82754 8.49308 4.84325 8.44128C4.87678 8.34174 4.91449 8.24422 4.9564 8.14874C5.04126 7.95676 5.14184 7.77698 5.25498 7.60633C5.71071 6.91764 6.31416 6.35694 6.96476 5.87547L7.07476 6.00651C6.4776 6.52759 5.92129 7.10047 5.5347 7.76783C5.44042 7.93238 5.35556 8.10304 5.28641 8.27673C5.25289 8.36409 5.2225 8.45246 5.19526 8.54184C5.18583 8.5845 5.17012 8.63631 5.16383 8.67288L5.15755 8.72468V8.77648C5.16698 8.91056 5.24555 9.03855 5.36813 9.10863C5.48756 9.17567 5.62585 9.18177 5.74843 9.12387C6.07844 8.96541 6.3896 8.71859 6.68504 8.46566C6.98048 8.21274 7.26648 7.94153 7.53992 7.65813C8.08994 7.08829 8.60225 6.49407 9.10826 5.87547C9.62686 5.25383 10.1832 4.66265 10.8243 4.13852C11.1449 3.87645 11.4844 3.63572 11.8929 3.44983C12.1444 3.33708 12.4524 3.35537 12.6913 3.4803C12.9301 3.6022 13.1187 3.83684 13.1533 4.10805C13.1784 4.24822 13.1501 4.35183 13.1376 4.46458C13.1313 4.57733 13.0904 4.67789 13.0621 4.7815C13.037 4.88815 12.9898 4.98261 12.9521 5.07708L12.8893 5.22335L12.817 5.36048C12.6253 5.72615 12.3895 6.06135 12.1412 6.37827C11.8929 6.69824 11.6258 7.00296 11.3492 7.2955C11.0726 7.58804 10.7866 7.87144 10.4849 8.1396L10.3623 8.02075Z" fill="white"/>
<path fill-rule="evenodd" clip-rule="evenodd" d="M15.9599 11.5675C15.9599 13.6488 14.2187 15.3369 12.072 15.3369C9.92224 15.3369 8.18103 13.6488 8.18103 11.5675C8.18103 9.48312 9.92224 7.79492 12.072 7.79492C14.2187 7.79492 15.9599 9.48312 15.9599 11.5675ZM8.82534 11.5675C8.82534 13.3014 10.2805 14.7123 12.072 14.7123C13.8604 14.7123 15.3156 13.3014 15.3156 11.5675C15.3156 9.83355 13.8604 8.42266 12.072 8.42266C10.2805 8.42266 8.82534 9.83355 8.82534 11.5675Z" fill="#801D18"/>
</svg>
