<svg width="30" height="30" viewBox="0 0 30 30" fill="none" xmlns="http://www.w3.org/2000/svg" role="img">
                        <title>Facebook</title>
                        <path d="M27.0001 14.9938C27.0001 8.37314 21.6242 3 15.0001 3C8.37603 3 3.00012 8.37314 3.00012 14.9938C3.00012 20.9846 7.38735 25.9501 13.134 26.8394V18.4524H10.0691V14.9938H13.134V12.3505C13.134 9.34895 14.9136 7.68142 17.6572 7.68142C18.9672 7.68142 20.3266 7.92847 20.3266 7.92847V10.8559H18.8189C17.3235 10.8559 16.8539 11.7947 16.8539 12.7334V14.9815H20.1906L19.6592 18.4401H16.8539V26.8271C22.6129 25.9501 27.0001 20.9846 27.0001 14.9938Z" fill="#1877F2"></path>
                        <path d="M19.6715 18.4648L20.2029 15.0062H16.8662V12.7581C16.8662 11.807 17.3482 10.8806 18.8312 10.8806H20.3389V7.94083C20.3389 7.94083 18.9795 7.69379 17.6695 7.69379C14.9259 7.69379 13.1463 9.36131 13.1463 12.3629V15.0062H10.0814V18.4648H13.1463V26.8518C13.7519 26.9506 14.3821 27 15.0124 27C15.6427 27 16.273 26.9506 16.8785 26.8518V18.4648H19.6715Z" fill="white"></path>
                    </svg>