<svg class="mr-2 shrink-0" width="30" height="30" viewBox="0 0 30 30" fill="none" xmlns="http://www.w3.org/2000/svg">
                                <circle cx="15" cy="15" r="15" fill="#1AE4FD"></circle>
                                <circle cx="1.42855" cy="1.42855" r="1.42855" transform="matrix(-1 0 0 1 9.85706 11)" fill="#174258"></circle>
                                <circle cx="1.42855" cy="1.42855" r="1.42855" transform="matrix(-1 0 0 1 22.9996 11)" fill="#174258"></circle>
                                <path fill-rule="evenodd" clip-rule="evenodd" d="M9.51947 15.9368C9.71214 15.5925 10.1474 15.4697 10.4916 15.6623C12.4244 16.7442 13.8211 17.2182 15.1409 17.2145C16.4582 17.2107 17.8061 16.7306 19.6418 15.6675C19.9831 15.4698 20.4201 15.5863 20.6178 15.9277C20.8155 16.269 20.699 16.706 20.3577 16.9037C18.4399 18.0144 16.8317 18.6382 15.145 18.643C13.4608 18.6478 11.8057 18.035 9.79388 16.9089C9.44965 16.7162 9.32679 16.281 9.51947 15.9368Z" fill="#174258"></path>
                                </svg>