<svg width="30" height="30" viewBox="0 0 30 30" fill="none" xmlns="http://www.w3.org/2000/svg" role="img">
                        <title>Twitter</title>
                        <circle cx="15.0001" cy="15" r="12" fill="#4A99E9"></circle>
                        <path d="M23.4001 11.586C22.8708 11.8208 22.3012 11.98 21.7028 12.0506C22.3133 11.6847 22.7814 11.1061 23.0018 10.4165C22.4307 10.7543 21.7988 11.0008 21.1263 11.1342C20.5875 10.5584 19.8198 10.2 18.9698 10.2C17.3384 10.2 16.0152 11.5232 16.0152 13.1545C16.0152 13.3863 16.0414 13.6109 16.0921 13.8282C13.636 13.7046 11.4605 12.5288 10.0031 10.741C9.74755 11.1775 9.60321 11.685 9.60321 12.2265C9.60321 13.2513 10.1244 14.1555 10.9174 14.6853C10.4326 14.6708 9.97731 14.5374 9.57824 14.3166C9.57824 14.3287 9.57824 14.3408 9.57824 14.3525C9.57824 15.7846 10.5968 16.9786 11.9481 17.2502C11.7004 17.3176 11.439 17.3543 11.1706 17.3543C10.9806 17.3543 10.7942 17.336 10.6147 17.3013C10.9904 18.4754 12.0815 19.3286 13.3739 19.3524C12.3624 20.1454 11.0887 20.6179 9.70464 20.6179C9.46629 20.6179 9.23184 20.6034 9.00012 20.5765C10.3073 21.4144 11.8607 21.9028 13.5287 21.9028C18.9632 21.9028 21.9353 17.4011 21.9353 13.4967C21.9353 13.3691 21.931 13.2411 21.9259 13.1147C22.5033 12.6977 23.0038 12.1781 23.4001 11.586Z" fill="white"></path>
                    </svg>