<svg width="24" height="24" viewBox="0 0 24 24" fill="none" xmlns="http://www.w3.org/2000/svg">
<path fill-rule="evenodd" clip-rule="evenodd" d="M12 0C9.79086 0 8 1.79086 8 4V8H4C1.79086 8 0 9.79086 0 12C0 14.2091 1.79086 16 4 16H8V20C8 22.2091 9.79086 24 12 24C14.2091 24 16 22.2091 16 20V16H20C22.2091 16 24 14.2091 24 12C24 9.79086 22.2091 8 20 8H16V4C16 1.79086 14.2091 0 12 0Z" fill="#FEDB2A"/>
<rect x="10" y="2" width="4" height="20" rx="2" fill="#FFEE9A"/>
<rect x="22" y="10" width="4" height="20" rx="2" transform="rotate(90 22 10)" fill="#FFEE9A"/>
<path d="M22 12C22 13.1046 21.1046 14 20 14L4 14C2.89543 14 2 13.1046 2 12L22 12Z" fill="#FEDB2A"/>
<path d="M12 2C13.1046 2 14 2.89543 14 4L14 20C14 21.1046 13.1046 22 12 22L12 2Z" fill="#FEDB2A"/>
<path d="M12 12L14 10V12H12Z" fill="#FFEE9A"/>
<path d="M10 14L12 12V14H10Z" fill="#FFEE9A"/>
</svg>
